<?xml version="1.0" encoding="UTF-8" standalone="no"?><!DOCTYPE svg PUBLIC "-//W3C//DTD SVG 1.1//EN" "http://www.w3.org/Graphics/SVG/1.1/DTD/svg11.dtd"><svg width="100%" height="100%" viewBox="0 0 497 93" version="1.1" xmlns="http://www.w3.org/2000/svg" xmlns:xlink="http://www.w3.org/1999/xlink" xml:space="preserve" xmlns:serif="http://www.serif.com/" style="fill-rule:evenodd;clip-rule:evenodd;stroke-linejoin:round;stroke-miterlimit:1.41421;"><path d="M240.279,55.714c0,17.19 -13.118,32.006 -28.272,32.006c-12.441,0 -20.017,-9.046 -20.017,-21.718c0,-17.19 13.118,-31.996 28.271,-31.996c12.44,0 20.018,9.046 20.018,21.708Zm-20.018,-16.058c-10.856,0 -17.302,19.003 -17.302,31.095c0,7.472 3.168,11.31 9.048,11.31c10.856,0 17.303,-18.994 17.303,-31.095c0,-7.463 -3.168,-11.31 -9.049,-11.31Z" style="fill:#fff;fill-rule:nonzero;"/><path d="M129.646,33.295c-2.942,4.577 -5.144,10.088 -6.867,16.418c-1.657,6.818 -2.198,12.832 -1.481,18.162c0.798,5.932 3.087,10.187 6.836,12.519c2.677,1.669 5.726,2.454 9.009,2.252c4.865,-0.299 9.259,-2.279 13.059,-5.93c3.786,-3.775 5.785,-8.051 5.88,-12.815l8.49,1.668c-1.372,5.935 -4.785,11.167 -10.069,15.766c-5.512,4.61 -12.027,7.212 -19.69,7.684c-10.341,0.636 -18.038,-2.799 -23.198,-10.171c-2.574,-3.626 -4.1,-7.685 -4.719,-12.287c-1.482,-11.015 1.641,-22.444 9.459,-34.524c8.807,-13.85 20.209,-21.144 34.076,-21.997c6.203,-0.382 11.507,0.757 15.927,3.54c5.201,3.097 7.78,7.697 7.989,13.789c0.012,0.245 0.008,0.476 0.012,0.714c0.009,0.131 0.035,0.261 0.04,0.394c0.237,5.082 -3.217,11.535 -9.369,11.821c-4.948,0.23 -8.045,-2.974 -8.25,-7.392c-0.18,-3.875 2.357,-9.373 6.603,-9.943c0,0 -0.342,-6.943 -11.467,-6.943c-11.072,0 -18.56,11.454 -22.27,17.275Z" style="fill:#fff;fill-rule:nonzero;"/><path d="M195.53,23.47c0.085,-0.275 0.167,-0.55 0.241,-0.826c0.721,-2.678 1.835,-5.365 2.005,-8.159c0.031,-0.518 0.047,-1.047 0.025,-1.565c-0.183,-4.182 -2.69,-6.074 -8.025,-5.336c-2.002,0.252 -3.478,0.985 -4.605,2.044c-0.16,0.171 -0.316,0.519 -0.131,0.846c0.53,0.645 0.734,1.476 0.785,2.647c0.075,1.704 -0.268,4.071 -0.98,7.009l-1.969,6.786c-0.229,0.695 -0.8,2.843 -0.8,2.843l-8.223,29.233c-2.411,7.931 -4.209,14.311 -4.432,18.412c0,6.465 3.35,10.392 9.815,10.392c3.555,0 6.954,-1.442 10.083,-5.479l-3.009,-4.017c-0.705,0.914 -1.887,3.235 -4.598,3.235c-1.268,0 -2.54,-0.696 -2.54,-2.885c0,-0.628 0.07,-1.397 0.195,-2.294c0.27,-1.348 1.224,-5.029 1.818,-6.932c0.093,-0.296 0.185,-0.591 0.278,-0.887c0.262,-0.844 0.526,-1.688 0.79,-2.531c0.392,-1.25 0.783,-2.501 1.173,-3.752c0.496,-1.587 0.991,-3.174 1.488,-4.761c0.555,-1.77 1.11,-3.541 1.663,-5.313c0.601,-1.929 1.203,-3.858 1.806,-5.786c0.576,-1.84 1.155,-3.679 1.73,-5.52c0.588,-1.881 1.17,-3.763 1.758,-5.644c0.443,-1.417 0.893,-2.831 1.339,-4.247c0.66,-2.093 1.299,-4.192 1.938,-6.291c0.124,-0.408 0.257,-0.814 0.382,-1.222Z" style="fill:#fff;fill-rule:nonzero;"/><path d="M279.488,33.422c-4.196,0.084 -7.4,4.343 -7.312,8.767c0.082,4.08 2.624,6.411 6.139,6.34c0.68,-0.013 1.923,-0.263 2.597,-0.617c-0.971,13.856 -8.784,31.595 -19.441,31.807c-4.195,0.084 -6.837,-1.565 -6.914,-5.421c-0.111,-5.521 5.119,-14.692 7.123,-23.763c1.727,-5.617 2.446,-9.584 2.288,-12.04c-0.266,-4.177 -3.071,-6.014 -8.391,-5.168c-1.997,0.291 -3.458,1.054 -4.564,2.135c-0.156,0.174 -0.304,0.525 -0.113,0.848c0.543,0.635 0.763,1.461 0.838,2.631c0.146,2.28 -0.423,5.748 -1.63,10.236c-1.961,7.388 -7.477,18.87 -6.057,27.261c1.192,7.044 5.685,12.023 13.962,11.858c18.368,-0.367 29.708,-28.838 29.404,-44.03c-0.156,-7.825 -3.054,-10.942 -7.929,-10.844Z" style="fill:#fff;fill-rule:nonzero;"/><path d="M352.264,56.715c6.577,-14.967 12.621,-22.784 19.993,-22.784c4.196,0 7.372,2.833 7.372,7.596c0,5.104 -3.29,9.415 -7.259,9.415c-3.516,0 -5.897,-2.268 -5.897,-6.465c-3.855,1.702 -12.588,14.288 -20.185,42.299l-11.228,0c0,0 11.104,-49.387 11.218,-50.699l10.445,0l-4.459,20.638Z" style="fill:#fff;fill-rule:nonzero;"/><path d="M331.466,70.65l-5.753,-1.386c-0.151,0.424 -1.102,2.988 -2.444,4.554c-4.001,4.687 -8.858,7.605 -12.92,7.605c-5.784,0 -9.605,-3.038 -9.605,-11.884c0,-1.134 0.114,-2.382 0.227,-3.743c23.474,-1.927 34.956,-11.629 34.956,-21.493c0,-6.465 -5.472,-10.372 -14.204,-10.372c-16.556,0 -31.98,16.443 -31.98,33.681c0,12.134 8.262,20.185 18.145,20.185c9.393,0 15.684,-4.954 20.918,-12.208c0.057,-0.08 0.116,-0.159 0.172,-0.239c0,0 1.499,-2.199 2.488,-4.7Zm-11.558,-31.049c3.743,0 6.299,2.2 6.299,5.147c0,7.599 -7.433,13.79 -24.102,15.947c2.721,-9.98 9.299,-21.094 17.803,-21.094Z" style="fill:#fff;fill-rule:nonzero;"/><path d="M361.629,84.634c0,-1.31 1.039,-3.207 2.936,-3.207c1.447,0 2.666,0.992 2.666,2.845c0,1.31 -1.039,3.207 -2.936,3.207c-1.446,0 -2.666,-0.992 -2.666,-2.845Z" style="fill:#fff;fill-rule:nonzero;"/><path d="M388.957,70.63c0,1.581 -0.949,3.478 -2.756,3.478c-1.446,0 -2.394,-0.995 -2.394,-2.213c0,-0.995 0.451,-2.033 1.535,-2.982c-0.361,-0.452 -1.174,-0.948 -2.53,-0.948c-4.878,0 -7.589,7.815 -7.589,11.383c0,3.749 1.943,5.106 4.111,5.106c2.124,0 4.157,-1.673 5.918,-4.654l1.852,1.084c-1.942,3.614 -4.337,6.279 -8.447,6.279c-4.653,0 -7.816,-3.387 -7.816,-8.131c0,-6.777 5.918,-13.326 12.062,-13.326c3.705,0 6.054,2.259 6.054,4.924Z" style="fill:#fff;fill-rule:nonzero;"/><path d="M410.027,74.38c0,6.865 -5.24,12.784 -11.294,12.784c-4.97,0 -7.996,-3.614 -7.996,-8.674c0,-6.867 5.24,-12.784 11.294,-12.784c4.969,0 7.996,3.614 7.996,8.674Zm-7.996,-6.415c-4.337,0 -6.912,7.589 -6.912,12.422c0,2.983 1.265,4.518 3.614,4.518c4.337,0 6.912,-7.59 6.912,-12.424c0,-2.981 -1.265,-4.516 -3.614,-4.516Z" style="fill:#fff;fill-rule:nonzero;"/><path d="M435.573,86.74l3.644,-13.772c0.21,-0.783 0.343,-1.533 0.343,-2.248c0,-1.175 -0.453,-1.581 -1.175,-1.581c-2.259,0 -6.461,4.336 -10.03,17.618l-4.381,0l3.252,-12.243c0.271,-0.993 0.496,-2.167 0.496,-3.162c0,-1.174 -0.315,-2.213 -1.354,-2.213c-2.259,0 -6.461,4.336 -10.029,17.618l-4.472,0l4.827,-20.781l4.031,0c-0.188,0.905 -1.326,5.992 -1.649,7.21c-0.151,0.568 -0.339,1.162 -0.568,1.78l0.316,0.136c2.846,-6.099 6.098,-9.396 9.171,-9.396c2.394,0 3.613,1.761 3.613,4.426c0,1.356 -0.361,2.891 -1.084,4.834l0.317,0.136c2.845,-6.099 6.098,-9.396 9.17,-9.396c2.395,0 3.794,2.123 3.794,4.788c0,0.8 -0.153,1.696 -0.393,2.639l-3.09,13.589" style="fill:#fff;fill-rule:nonzero;"/><path d="M445.648,84.634c0,-1.31 1.039,-3.207 2.936,-3.207c1.447,0 2.666,0.992 2.666,2.845c0,1.31 -1.039,3.207 -2.936,3.207c-1.446,0 -2.666,-0.992 -2.666,-2.845Z" style="fill:#fff;fill-rule:nonzero;"/><path d="M473.095,84.154c-0.289,0.277 -0.677,0.509 -1.218,0.509c-0.507,0 -1.014,-0.278 -1.014,-1.152c0,-0.25 0.028,-0.557 0.078,-0.915c0.057,-0.287 0.193,-0.841 0.343,-1.41c0.085,-0.394 0.197,-0.837 0.336,-1.34l3.75,-13.869l-4.156,0l-0.859,3.253c-0.271,-1.899 -1.536,-3.524 -3.93,-3.524c-2.485,0 -5.15,1.491 -7.364,3.704c-2.394,2.395 -4.201,6.189 -4.201,10.753c0,3.973 2.214,7.001 5.692,7.001c2.394,0 5.014,-1.671 6.686,-4.788l0.316,0.136c-0.045,0.45 -0.045,0.633 -0.045,0.948c0,2.439 1.446,3.704 3.343,3.704l0.036,-0.001c1.133,0 2.227,-0.367 3.257,-1.335l-1.05,-1.674Zm-10.872,-0.198c-1.987,0 -2.936,-1.671 -2.936,-4.472c0,-3.523 2.801,-11.249 7.228,-11.249c1.716,0 2.666,1.355 2.666,3.75c0,3.66 -3.072,11.971 -6.958,11.971Z" style="fill:#fff;fill-rule:nonzero;"/><path d="M487.066,86.718c0.165,-0.726 2.206,-7.916 2.493,-8.724l-0.145,-0.136c-2.847,6.098 -5.963,9.306 -9.036,9.306c-2.394,0 -3.794,-2.077 -3.794,-4.743c0,-1.086 0.195,-2.374 0.515,-3.723c0.244,-1.026 3.543,-12.722 3.543,-12.722l4.536,0c0,0 -3.658,12.024 -3.933,13.125c-0.256,1.028 -0.415,1.98 -0.415,2.822c0,1.401 0.452,1.853 1.175,1.853c2.259,0 6.325,-4.202 9.983,-17.8l4.472,0l-5.338,20.742l-4.056,0Z" style="fill:#fff;fill-rule:nonzero;"/><path d="M60.92,69.396c-0.475,-0.075 -0.46,0.56 -0.46,0.56c-0.002,0.917 -0.086,1.794 -0.188,2.81c-0.344,3.514 -1.81,6.493 -4.359,8.849c-3.432,3.163 -7.544,4.349 -12.1,3.527c-7.47,-1.366 -12.41,-8.354 -11.246,-15.909c0.479,-3.117 1.992,-5.879 4.57,-8.505c1.81,-1.843 3.665,-3.668 5.502,-5.502c1.798,-1.795 18.231,-18.293 18.376,-18.428c0.283,-0.265 0.603,-0.561 0.962,-0.888c3.092,-2.822 7.036,-3.908 11.251,-3.311c3.832,0.549 7.179,2.553 9.426,5.64c2.244,3.079 3.118,6.885 2.463,10.712c-1.133,6.609 -7.102,11.588 -13.882,11.588c-1.356,0 -2.701,-0.202 -3.997,-0.6c-1.045,-0.322 -2.005,-0.774 -2.906,-1.305c-1.583,-0.932 -2.591,-2.079 -3.856,-3.344c0,0 -1,-1.011 -1.481,-1.493c-0.249,-0.248 -0.487,-0.014 -0.487,-0.014c-0.299,0.299 -0.802,0.801 -1.079,1.079c-0.219,0.219 0.053,0.454 0.053,0.454c0.418,0.418 1.137,1.137 2.053,2.053c1.045,1.045 1.36,1.589 3.132,2.788c1.848,1.249 3.008,1.734 4.484,2.105c2.594,0.652 5.339,0.608 8.212,-0.138c7.816,-2.031 12.942,-9.656 11.922,-17.741c-0.824,-6.542 -6.021,-12.307 -12.361,-13.707c-2.631,-0.578 -5.279,-0.545 -7.883,0.085c-0.406,0.103 -0.68,0.048 -0.875,-0.144c-0.199,-0.202 -0.223,-0.49 -0.221,-0.744c0.002,-0.217 0.076,-0.412 0.14,-0.583c1.122,-3.115 1.584,-5.51 1.489,-7.62c-0.01,-1.253 -0.025,-2.133 -0.141,-3.021c-0.714,-5.518 -3.153,-10.034 -7.249,-13.419c-6.605,-5.452 -14.081,-6.66 -21.933,-3.537c-8.769,3.477 -13.943,12.031 -13.181,21.792c0.064,0.819 0.097,1.253 -0.17,1.54c-0.206,0.225 -0.507,0.255 -0.776,0.255c-0.241,0 -0.563,-0.03 -0.992,-0.074c-4.616,-0.498 -8.839,0.643 -12.72,3.048c-6.317,3.919 -9.798,9.563 -10.344,16.775c-0.412,5.464 1.047,10.175 4.432,14.449c4.31,5.434 9.943,8.311 16.917,8.311c0.242,0 1.231,0.087 1.33,-0.481l0.135,-1.055c0.091,-0.771 -0.393,-0.733 -0.393,-0.733l-0.107,0.003c-0.387,0.026 -0.768,0.038 -1.146,0.038c-2.736,0 -5.454,-0.631 -8.074,-1.876c-7.034,-3.337 -11.403,-10.811 -10.874,-18.595c0.306,-4.494 1.949,-8.38 4.884,-11.559c4.701,-5.083 10.657,-7.097 17.528,-6.23c0.437,0.055 0.862,0.068 1.16,0.442c0.332,0.415 0.474,1.033 0.668,1.522c0.164,0.418 0.38,0.82 0.573,1.226c0.771,1.616 1.736,3.14 2.931,4.476c1.029,1.15 2.161,2.221 3.256,3.308c0.994,0.986 1.982,1.977 2.972,2.968c0.262,0.263 0.525,0.525 0.788,0.788c0.26,0.259 0.436,0.381 0.452,0.623c0.019,0.306 -0.204,0.534 -0.325,0.659l-8.914,9.023c-2.337,2.228 -4.875,3.411 -7.851,3.098c-4.13,-0.435 -7.495,-3.636 -8,-7.607c-0.554,-4.384 1.573,-8.137 5.552,-9.799c0.323,-0.134 1.143,-0.467 1.143,-0.467c0,0 0.247,-0.083 0.24,-0.487c0.004,-0.182 -0.076,-0.783 -0.078,-1.053c-0.002,-0.537 -0.418,-0.361 -0.418,-0.361c-4.497,1.12 -7.325,3.894 -8.4,8.236c-1.074,4.34 0.132,8.053 3.584,11.041c1.98,1.717 4.518,2.663 7.145,2.663c2.541,0 5.011,-0.892 6.954,-2.509c0,0 0.685,-0.408 3.178,-2.902l6.882,-6.886c0.121,-0.125 0.228,-0.225 0.315,-0.312c0.273,-0.273 0.469,-0.475 0.75,-0.475c0.279,0 0.449,0.195 0.853,0.581l0.53,0.521c0.416,0.417 0.56,0.877 -0.161,1.598l-8.281,8.282c-0.025,0.026 -0.051,0.052 -0.076,0.077c-2.519,2.519 -4.4,3.629 -7.236,4.409c-1.94,0.535 -4.034,0.567 -6.392,0.096c-6.81,-1.359 -11.667,-7.854 -11.056,-14.782c0.383,-4.336 2.415,-7.857 6.038,-10.462c2.042,-1.47 4.511,-2.318 7.508,-2.561c0,0 0.613,0.003 0.891,0.005c0,0 0.388,0.012 0.406,-0.336c0.009,-0.197 0.005,-1.098 0.003,-1.305c-0.003,-0.421 -0.357,-0.383 -0.357,-0.383l-0.112,0c-0.805,0.011 -1.637,0.022 -2.448,0.122c-6.428,0.799 -11.865,5.477 -13.528,11.647c-1.52,5.636 -0.372,10.749 3.415,15.196c1.917,2.25 4.309,3.838 7.109,4.722c2.171,0.688 4.054,0.954 5.949,0.792c1.161,-0.1 2.402,-0.24 3.614,-0.59c0.147,-0.055 0.259,-0.095 0.387,-0.095c0.188,0 0.351,0.092 0.451,0.262c0.118,0.199 0.09,0.383 0.021,0.53c-0.054,0.119 -0.896,2.593 -1.093,3.319c-0.12,0.438 -0.232,0.851 -0.297,1.278c-0.425,2.844 -0.429,5.36 -0.053,7.732c1.512,9.526 10.004,17.046 19.639,17.603c8.929,0.511 16.805,-4.433 20.591,-12.474c1.368,-2.907 2.035,-5.965 2.005,-9.236c-0.004,-0.497 -0.402,-0.564 -0.402,-0.564c-0.384,-0.049 -1.235,-0.151 -1.403,-0.154c-0.414,-0.006 -0.351,0.412 -0.351,0.412c0.013,1.033 -0.058,2.013 -0.187,2.972c-0.685,5.069 -2.947,9.221 -6.726,12.34c-4.277,3.533 -9.185,5.029 -14.558,4.359c-5.032,-0.601 -9.206,-2.878 -12.399,-6.764c-3.797,-4.619 -5.183,-9.931 -4.125,-15.791c0.718,-3.968 2.812,-7.405 6.234,-10.87c1.577,-1.592 20.013,-19.902 24.496,-24.463c3.669,-3.727 5.063,-8.466 4.14,-13.899c-1.311,-7.743 -8.002,-13.365 -15.909,-13.365c-4.553,0.015 -8.419,1.629 -11.539,4.8c-2.772,2.822 -4.323,6.219 -4.607,10.09c-0.045,0.61 -0.05,1.224 -0.015,1.834c0.039,0.701 0.131,1.397 0.265,2.085c0,0 0.478,4.725 4.993,9.24c1.129,1.129 2.509,2.501 3.639,3.628c0.737,0.734 1.468,1.472 2.203,2.206c0.296,0.296 0.579,-0.052 0.579,-0.052c0,0 0.649,-0.649 0.942,-0.941c0.292,-0.292 -0.008,-0.518 -0.008,-0.518c-0.251,-0.209 -4.486,-4.483 -4.903,-4.899c-0.633,-0.637 -1.289,-1.293 -1.909,-1.971c-2.655,-2.899 -3.967,-6.81 -3.607,-10.73c0.361,-3.901 2.358,-7.489 5.48,-9.843c2.435,-1.83 5.322,-2.799 8.352,-2.799c4.039,0 7.887,1.739 10.552,4.769c3.815,4.337 4.823,9.878 2.205,15.319c-0.919,1.908 -2.625,3.795 -3.994,5.161c-3.239,3.235 -11.421,11.42 -11.421,11.42c-0.309,0.309 -0.718,0.745 -1.315,0.149c0,0 -6.386,-6.377 -8.063,-8.034c-0.251,-0.251 -2.217,-2.126 -2.833,-2.914c-3.404,-4.391 -4.723,-9.35 -3.915,-14.746c0.631,-4.24 2.517,-7.889 5.604,-10.848c4.131,-3.96 9.126,-5.743 14.793,-5.334c4.97,0.372 9.117,2.343 12.328,5.857c5.649,6.189 6.842,13.375 3.549,21.35c-0.819,1.986 -2.146,3.82 -4.173,5.769c-2.006,1.934 -4.006,3.938 -5.94,5.879c-0.923,0.924 -1.846,1.853 -2.774,2.773c-1.544,1.537 -11.677,11.643 -15.171,15.162c-1.166,1.17 -2.198,2.189 -3.022,3.482c-4.681,7.327 -2.946,16.72 4.033,21.851c2.783,2.045 6.047,3.124 9.437,3.124c3.334,0 6.755,-1.05 9.652,-3.035c2.048,-1.403 3.726,-3.433 4.925,-5.595c1.289,-2.323 1.803,-4.928 1.964,-7.557c0.02,-0.331 0.026,-0.664 0.045,-0.995c0,0 0.092,-0.614 -0.342,-0.694c-0.015,-0.002 -0.461,-0.115 -0.476,-0.117l-0.98,-0.207Z" style="fill:#fff;fill-rule:nonzero;"/><path d="M66.302,53.878c-0.505,-0.459 -0.976,-0.962 -1.451,-1.437c-0.109,-0.109 -0.235,-0.235 -0.344,-0.345c0,0 -0.23,-0.285 -0.495,-0.02l-1.056,1.056c-0.261,0.261 0.042,0.468 0.042,0.468c1.159,1.159 2.286,2.387 3.794,3.095c0.972,0.457 2.018,0.71 3.082,0.832c0.932,0.107 1.926,0.125 2.852,-0.045c5.99,-0.759 9.633,-6.208 9.572,-10.819c-0.074,-4.428 -1.998,-7.718 -5.721,-9.773c-1.771,-0.98 -3.572,-1.474 -5.358,-1.474c-1.982,0 -3.767,0.413 -5.691,1.618c-0.706,0.443 -1.177,0.747 -2.033,1.603c-0.291,0.291 -23.217,23.211 -24.51,24.504c-3.26,3.26 -4.068,5.988 -3.618,9.779c0.663,5.529 5.363,9.695 10.933,9.695c1.075,0 2.153,-0.155 3.203,-0.464c3.026,-0.892 5.529,-3.044 6.866,-5.898c1.348,-2.879 1.59,-6.305 0.279,-9.235c-0.68,-1.521 -1.614,-2.881 -2.793,-4.06l-0.947,-0.947c-1.209,-1.209 -2.05,-2.043 -3.229,-3.229l-0.934,-0.938c-0.824,-0.824 -0.191,-1.252 0.307,-1.749c0,0 12.748,-12.764 15.066,-15.066c1.326,-1.322 2.744,-2.956 5.07,-3.318c2.724,-0.419 5.112,0.1 7.367,1.617c3.31,2.226 4.456,6.141 3.063,10.469c-0.707,2.207 -2.221,3.872 -4.497,4.951c-1.361,0.645 -3.092,0.991 -4.587,0.891c-0.637,-0.042 -1.336,-0.137 -1.946,-0.333c-0.88,-0.283 -1.613,-0.816 -2.286,-1.428Zm-10.896,17.553c-0.168,5.268 -4.152,8.465 -8.003,8.919c-0.358,0.04 -0.718,0.063 -1.074,0.063c-4.341,0 -8.053,-3.114 -8.825,-7.397c-0.544,-3.014 0.381,-5.678 2.555,-7.928l5.803,-5.826c0.177,-0.137 0.392,-0.276 0.647,-0.276c0.292,0 0.508,0.184 0.645,0.32l5.02,5.021c3.596,3.595 3.232,7.104 3.232,7.104Z" style="fill:#fff;fill-rule:nonzero;"/><path d="M88.24,59.518c3.632,-4.722 5.037,-10.092 4.179,-15.968c-1.289,-8.833 -7.524,-15.634 -16.271,-17.744c-1.466,-0.358 -2.975,-0.567 -4.48,-0.567l-0.303,0.004c0,0 -0.35,-0.05 -0.382,0.417c-0.03,0.433 -0.063,0.88 -0.093,1.259c-0.036,0.451 0.317,0.419 0.317,0.419c0.216,0.015 0.431,0.033 0.646,0.049l0.628,0.048c4.94,0.342 9.154,2.298 12.528,5.867c3.866,4.092 5.704,8.988 5.296,14.55c-0.409,5.559 -2.649,10.195 -7.011,13.665c-3.862,3.066 -8.585,4.393 -13.488,4.039c-3.817,-0.276 -7.343,-1.62 -10.261,-4.105c-1.588,-1.352 -2.974,-2.905 -4.439,-4.384c-0.342,-0.345 -0.684,-0.692 -1.029,-1.036c-0.286,-0.286 -0.454,-0.052 -0.454,-0.052l-1.112,1.111c-0.223,0.223 0.052,0.456 0.052,0.456c0.74,0.736 2.887,2.868 3.638,3.638c1.229,1.263 2.665,2.649 3.936,3.465c3.592,2.305 6.917,3.131 11.282,3.173c0.178,0.007 0.346,0.007 0.513,0.007c0.814,0 1.66,-0.07 2.584,-0.218c5.677,-0.906 10.294,-3.629 13.724,-8.093Z" style="fill:#fff;fill-rule:nonzero;"/><path d="M54.803,18.35c0.144,0.378 0.352,0.842 0.446,1.047c0.193,0.417 0.224,0.529 0.652,0.404l1.023,-0.287c0,0 0.37,-0.091 0.253,-0.54c-0.567,-2.182 -1.557,-4.043 -3.059,-5.509c-2.05,-2 -4.889,-3.145 -7.793,-3.145c-1.481,0 -2.904,0.287 -4.229,0.862c-4.214,1.819 -6.82,5.772 -6.802,10.314c0,0 -0.134,4.264 2.441,6.838l5.203,5.208c0,0 0.258,0.249 0.472,0.035l1.1,-1.1c0.207,-0.207 -0.065,-0.442 -0.065,-0.442l-4.028,-4.026l-1.035,-1.035c-1.489,-1.489 -2.062,-4.166 -1.823,-6.502c0.46,-4.531 4.284,-7.945 8.89,-7.945c3.735,0.007 7.011,2.294 8.354,5.823Z" style="fill:#fff;fill-rule:nonzero;"/></svg>