<svg width="1" height="1" viewBox="0 0 1 1" fill="none" xmlns="http://www.w3.org/2000/svg">
<path d="M0.48346 0.518539C0.48346 0.553127 0.457066 0.582938 0.426575 0.582938C0.401543 0.582938 0.386299 0.564736 0.386299 0.539239C0.386299 0.504652 0.412693 0.474861 0.443182 0.474861C0.468213 0.474861 0.48346 0.493062 0.48346 0.518539V0.518539ZM0.443182 0.486229C0.421339 0.486229 0.40837 0.524465 0.40837 0.548795C0.40837 0.563829 0.414744 0.571551 0.426575 0.571551C0.448418 0.571551 0.46139 0.533334 0.46139 0.508986C0.46139 0.49397 0.455015 0.486229 0.443182 0.486229V0.486229Z" fill="#009CF5"/>
<path d="M0.260857 0.47343C0.254937 0.482639 0.250507 0.493727 0.24704 0.506464C0.243706 0.520182 0.242617 0.532283 0.24406 0.543007C0.245666 0.554943 0.250271 0.563504 0.257814 0.568196C0.263201 0.571554 0.269336 0.573134 0.275941 0.572727C0.28573 0.572126 0.294571 0.568142 0.302217 0.560796C0.309835 0.5532 0.313857 0.544597 0.314048 0.535011L0.33113 0.538367C0.32837 0.550309 0.321503 0.560836 0.310871 0.57009C0.29978 0.579365 0.286672 0.584601 0.271253 0.58555C0.250446 0.58683 0.234959 0.579919 0.224577 0.565086C0.219398 0.55779 0.216328 0.549623 0.215082 0.540363C0.2121 0.5182 0.218384 0.495204 0.234114 0.470898C0.251835 0.443031 0.274776 0.428355 0.302678 0.426639C0.315159 0.42587 0.325831 0.428162 0.334724 0.433762C0.345189 0.439993 0.350378 0.449249 0.350798 0.461506C0.350823 0.461999 0.350814 0.462464 0.350822 0.462943C0.350841 0.463206 0.350893 0.463468 0.350903 0.463735C0.35138 0.473961 0.34443 0.486945 0.332052 0.48752C0.322096 0.487983 0.315865 0.481536 0.315452 0.472647C0.31509 0.46485 0.320195 0.453788 0.328738 0.452641C0.328738 0.452641 0.32805 0.438671 0.305666 0.438671C0.283388 0.438671 0.268321 0.461717 0.260857 0.47343V0.47343Z" fill="#009CF5"/>
<path d="M0.393422 0.453661C0.393593 0.453108 0.393758 0.452554 0.393907 0.451999C0.395358 0.446611 0.397599 0.441204 0.397941 0.435583C0.398004 0.43454 0.398036 0.433476 0.397992 0.432434C0.397623 0.424019 0.392579 0.420212 0.381845 0.421697C0.377817 0.422204 0.374847 0.423679 0.372579 0.42581C0.372257 0.426154 0.371943 0.426854 0.372316 0.427512C0.373382 0.42881 0.373792 0.430482 0.373895 0.432838C0.374046 0.436267 0.373356 0.441029 0.371923 0.446941L0.367961 0.460595C0.367501 0.461993 0.366352 0.466315 0.366352 0.466315L0.349806 0.525134C0.344955 0.541092 0.341338 0.553929 0.340889 0.56218C0.340889 0.575188 0.347629 0.58309 0.360637 0.58309C0.36779 0.58309 0.374629 0.580188 0.380925 0.572066L0.374871 0.563983C0.373452 0.565822 0.371074 0.570492 0.365619 0.570492C0.363068 0.570492 0.360509 0.569092 0.360509 0.564687C0.360509 0.563424 0.36065 0.561876 0.360901 0.560072C0.361444 0.557359 0.363364 0.549953 0.364559 0.546124C0.364746 0.545528 0.364931 0.544935 0.365118 0.544339C0.365645 0.542641 0.366177 0.540943 0.366708 0.539247C0.367497 0.536732 0.368283 0.534214 0.369068 0.531697C0.370066 0.528504 0.371062 0.525311 0.372062 0.522118C0.373179 0.518556 0.374295 0.514993 0.375408 0.511428C0.376617 0.507546 0.377829 0.503665 0.379042 0.499786C0.380201 0.496084 0.381366 0.492383 0.382523 0.488679C0.383706 0.484895 0.384877 0.481108 0.38606 0.477323C0.386951 0.474472 0.387857 0.471627 0.388754 0.468778C0.390082 0.464567 0.391368 0.460343 0.392654 0.45612C0.392903 0.455299 0.393171 0.454482 0.393422 0.453661V0.453661Z" fill="#009CF5"/>
<path d="M0.562352 0.473688C0.553909 0.473857 0.547462 0.482426 0.547639 0.491327C0.547804 0.499537 0.552919 0.504227 0.559991 0.504084C0.56136 0.504058 0.563861 0.503555 0.565217 0.502843C0.563263 0.530722 0.547543 0.566414 0.5261 0.56684C0.517659 0.56701 0.512344 0.563692 0.512189 0.555933C0.511965 0.544824 0.522488 0.526372 0.526521 0.50812C0.529995 0.496818 0.531442 0.488836 0.531124 0.483895C0.530589 0.47549 0.524945 0.471794 0.514241 0.473496C0.510223 0.474082 0.507283 0.475617 0.505058 0.477792C0.504744 0.478142 0.504446 0.478849 0.50483 0.479498C0.505923 0.480776 0.506366 0.482438 0.506517 0.484792C0.50681 0.48938 0.505666 0.496358 0.503237 0.505388C0.499291 0.520253 0.488193 0.543356 0.49105 0.560239C0.493448 0.574412 0.502488 0.58443 0.519142 0.584098C0.5561 0.58336 0.578917 0.526074 0.578305 0.495506C0.577991 0.479762 0.57216 0.47349 0.562352 0.473688V0.473688Z" fill="#009CF5"/>
<path d="M0.70878 0.520552C0.722013 0.490437 0.734174 0.474709 0.749007 0.474709C0.75745 0.474709 0.76384 0.480409 0.76384 0.489992C0.76384 0.500262 0.75722 0.508936 0.749234 0.508936C0.74216 0.508936 0.737369 0.504373 0.737369 0.495928C0.729612 0.499352 0.712041 0.524676 0.696755 0.581037H0.674164C0.674164 0.581037 0.696506 0.481666 0.696735 0.479026H0.717751L0.70878 0.520552V0.520552Z" fill="#009CF5"/>
<path d="M0.666935 0.54859L0.655359 0.545801C0.655055 0.546654 0.653142 0.551813 0.650442 0.554964C0.642391 0.564395 0.632619 0.570266 0.624446 0.570266C0.612808 0.570266 0.60512 0.564153 0.60512 0.546354C0.60512 0.544073 0.605349 0.541562 0.605576 0.538823C0.652808 0.534946 0.67591 0.515425 0.67591 0.495578C0.67591 0.48257 0.6649 0.474709 0.647331 0.474709C0.614019 0.474709 0.582985 0.507793 0.582985 0.542477C0.582985 0.566892 0.599609 0.583091 0.619494 0.583091C0.638393 0.583091 0.651051 0.573123 0.661582 0.558527C0.661697 0.558366 0.661816 0.558208 0.661929 0.558047C0.661929 0.558047 0.664945 0.553622 0.666935 0.54859V0.54859ZM0.643679 0.486117C0.65121 0.486117 0.656353 0.490544 0.656353 0.496473C0.656353 0.511763 0.641397 0.52422 0.607858 0.52856C0.613333 0.508479 0.626568 0.486117 0.643679 0.486117Z" fill="#009CF5"/>
<path d="M0.727623 0.576727C0.727623 0.574091 0.729714 0.570274 0.73353 0.570274C0.736442 0.570274 0.738895 0.57227 0.738895 0.575999C0.738895 0.578635 0.736804 0.582451 0.732987 0.582451C0.730078 0.582451 0.727623 0.580455 0.727623 0.576727Z" fill="#009CF5"/>
<path d="M0.782613 0.54855C0.782613 0.551731 0.780704 0.555548 0.777068 0.555548C0.774158 0.555548 0.772251 0.553546 0.772251 0.551096C0.772251 0.549094 0.773158 0.547005 0.775339 0.545096C0.774613 0.544186 0.772977 0.543188 0.770249 0.543188C0.760434 0.543188 0.754979 0.558912 0.754979 0.566092C0.754979 0.573635 0.758889 0.576365 0.763251 0.576365C0.767525 0.576365 0.771615 0.572999 0.775158 0.567001L0.778885 0.569182C0.774977 0.576454 0.770158 0.581816 0.761889 0.581816C0.752527 0.581816 0.746162 0.575001 0.746162 0.565456C0.746162 0.55182 0.75807 0.538643 0.770432 0.538643C0.777887 0.538643 0.782613 0.543188 0.782613 0.54855V0.54855Z" fill="#009CF5"/>
<path d="M0.825007 0.556096C0.825007 0.569908 0.814463 0.581818 0.802282 0.581818C0.792282 0.581818 0.786194 0.574546 0.786194 0.564365C0.786194 0.550548 0.796737 0.538643 0.808918 0.538643C0.818916 0.538643 0.825007 0.545915 0.825007 0.556096ZM0.808918 0.543188C0.800192 0.543188 0.795011 0.558458 0.795011 0.568182C0.795011 0.574184 0.797556 0.577273 0.802282 0.577273C0.811009 0.577273 0.81619 0.562001 0.81619 0.552275C0.81619 0.546277 0.813645 0.543188 0.808918 0.543188Z" fill="#009CF5"/>
<path d="M0.876403 0.580965L0.883735 0.553255C0.884158 0.551679 0.884425 0.55017 0.884425 0.548731C0.884425 0.546367 0.883514 0.54555 0.882061 0.54555C0.877516 0.54555 0.869061 0.554275 0.86188 0.580999H0.853065L0.859608 0.556365C0.860154 0.554367 0.860606 0.552005 0.860606 0.550003C0.860606 0.547641 0.859972 0.54555 0.857882 0.54555C0.853337 0.54555 0.844882 0.554275 0.837703 0.580999H0.828705L0.838417 0.539186H0.846528C0.84615 0.541007 0.84386 0.551242 0.84321 0.553693C0.842906 0.554836 0.842528 0.556031 0.842067 0.557275L0.842703 0.557548C0.848429 0.545277 0.854972 0.538643 0.861156 0.538643C0.865972 0.538643 0.868425 0.542186 0.868425 0.547548C0.868425 0.550277 0.867699 0.553365 0.866244 0.557275L0.866882 0.557548C0.872606 0.545277 0.879151 0.538643 0.885333 0.538643C0.890151 0.538643 0.892966 0.542915 0.892966 0.548277C0.892966 0.549886 0.892659 0.551689 0.892176 0.553587L0.885958 0.580929" fill="#009CF5"/>
<path d="M0.896675 0.576727C0.896675 0.574091 0.898766 0.570274 0.902583 0.570274C0.905494 0.570274 0.907947 0.57227 0.907947 0.575999C0.907947 0.578635 0.905856 0.582451 0.902039 0.582451C0.89913 0.582451 0.896675 0.580455 0.896675 0.576727Z" fill="#009CF5"/>
<path d="M0.951905 0.575762C0.951323 0.576319 0.950543 0.576786 0.949454 0.576786C0.948434 0.576786 0.947414 0.576226 0.947414 0.574468C0.947414 0.573965 0.94747 0.573347 0.947571 0.572627C0.947685 0.572049 0.947959 0.570935 0.948261 0.56979C0.948432 0.568997 0.948657 0.568106 0.948937 0.567094L0.956482 0.539188H0.94812L0.946392 0.545733C0.945846 0.541913 0.943301 0.538643 0.938484 0.538643C0.933484 0.538643 0.928122 0.541643 0.923667 0.546096C0.91885 0.550915 0.915215 0.558548 0.915215 0.567731C0.915215 0.575725 0.919669 0.581818 0.926667 0.581818C0.931484 0.581818 0.936756 0.578456 0.94012 0.572184L0.940756 0.572458C0.940665 0.573363 0.940665 0.573731 0.940665 0.574365C0.940665 0.579273 0.943575 0.581818 0.947392 0.581818L0.947464 0.581816C0.949744 0.581816 0.951945 0.581077 0.954017 0.57913L0.951905 0.575762V0.575762ZM0.930029 0.575363C0.926031 0.575363 0.924122 0.572001 0.924122 0.566365C0.924122 0.559277 0.929758 0.543731 0.938665 0.543731C0.942118 0.543731 0.944029 0.546458 0.944029 0.551277C0.944029 0.558641 0.937848 0.575363 0.930029 0.575363V0.575363Z" fill="#009CF5"/>
<path d="M0.980014 0.580923C0.980346 0.579462 0.984452 0.564995 0.98503 0.563369L0.984738 0.563096C0.97901 0.575365 0.97274 0.58182 0.966557 0.58182C0.96174 0.58182 0.958923 0.577641 0.958923 0.572277C0.958923 0.570092 0.959316 0.5675 0.95996 0.564786C0.96045 0.562722 0.967088 0.539188 0.967088 0.539188H0.976215C0.976215 0.539188 0.968855 0.563382 0.968302 0.565597C0.967786 0.567665 0.967467 0.569581 0.967467 0.571275C0.967467 0.574094 0.968376 0.575003 0.969831 0.575003C0.974376 0.575003 0.982557 0.566549 0.989917 0.539188H0.998915L0.988175 0.580923H0.980014V0.580923Z" fill="#009CF5"/>
<path d="M0.122575 0.546067C0.12162 0.545916 0.12165 0.547194 0.12165 0.547194C0.121646 0.549039 0.121477 0.550803 0.121272 0.552847C0.120579 0.559918 0.11763 0.565912 0.112501 0.570652C0.105596 0.577016 0.0973219 0.579403 0.0881549 0.577749C0.0731247 0.575 0.063185 0.56094 0.0655271 0.545739C0.0664909 0.539467 0.0695351 0.53391 0.0747223 0.528626C0.0783641 0.524918 0.0820965 0.521246 0.0857927 0.517556C0.0894104 0.513944 0.122475 0.480749 0.122767 0.480477C0.123336 0.479944 0.12398 0.479348 0.124702 0.478691C0.130923 0.473012 0.138859 0.470827 0.14734 0.472029C0.15505 0.473133 0.161785 0.477165 0.166306 0.483377C0.170821 0.489572 0.172579 0.49723 0.171261 0.50493C0.168982 0.518228 0.156972 0.528246 0.14333 0.528246C0.140602 0.528246 0.137895 0.527839 0.135288 0.527039C0.133185 0.526391 0.131253 0.525481 0.129441 0.524413C0.126255 0.522538 0.124227 0.52023 0.121682 0.517685C0.121682 0.517685 0.11967 0.51565 0.118702 0.51468C0.118201 0.514181 0.117722 0.514652 0.117722 0.514652C0.117121 0.515254 0.116109 0.516264 0.115551 0.516823C0.115111 0.517264 0.115658 0.517737 0.115658 0.517737C0.116499 0.518578 0.117946 0.520025 0.119789 0.521868C0.121891 0.52397 0.122525 0.525065 0.12609 0.527477C0.129809 0.52999 0.132143 0.530966 0.135113 0.531713C0.140332 0.533025 0.145855 0.532936 0.151636 0.531435C0.167362 0.527348 0.177676 0.512006 0.175624 0.495739C0.173966 0.482576 0.163509 0.470976 0.150752 0.468159C0.145459 0.466996 0.140131 0.467063 0.134891 0.46833C0.134074 0.468538 0.133523 0.468427 0.133131 0.468041C0.13273 0.467634 0.132682 0.467055 0.132686 0.466544C0.13269 0.466107 0.132839 0.465715 0.132968 0.465371C0.135225 0.459103 0.136155 0.454284 0.135964 0.450039C0.135944 0.447518 0.135913 0.445747 0.13568 0.44396C0.134243 0.432858 0.129336 0.423771 0.121094 0.41696C0.107805 0.40599 0.0927625 0.40356 0.0769637 0.409843C0.0593199 0.416839 0.0489094 0.434051 0.0504426 0.453691C0.0505714 0.455338 0.0506378 0.456212 0.0501005 0.456789C0.0496861 0.457242 0.0490804 0.457302 0.0485392 0.457302C0.0480543 0.457302 0.0474064 0.457242 0.0465432 0.457153C0.0372555 0.456151 0.0287585 0.458447 0.0209496 0.463286C0.00823937 0.471171 0.00123535 0.482528 0.00013676 0.497039C-0.000692214 0.508033 0.0022434 0.517511 0.00905426 0.526111C0.0177263 0.537045 0.0290603 0.542833 0.0430925 0.542833C0.0435794 0.542833 0.0455694 0.543008 0.0457685 0.541866L0.0460402 0.539743C0.0462233 0.538192 0.0452494 0.538268 0.0452494 0.538268L0.0450341 0.538274C0.0442555 0.538326 0.0434889 0.53835 0.0427283 0.53835C0.0372233 0.53835 0.0317545 0.537081 0.0264828 0.534576C0.0123299 0.527862 0.00353917 0.512823 0.00460356 0.497161C0.00521925 0.488119 0.00852509 0.4803 0.0144305 0.473904C0.0238893 0.463676 0.0358732 0.459624 0.0496981 0.461369C0.0505774 0.461479 0.0514325 0.461505 0.0520321 0.462258C0.0527001 0.463093 0.0529859 0.464336 0.0533762 0.46532C0.0537062 0.466161 0.0541408 0.46697 0.0545291 0.467787C0.0560804 0.471039 0.0580221 0.474105 0.0604265 0.476793C0.0624969 0.479107 0.0647746 0.481262 0.0669778 0.483449C0.0689778 0.485433 0.0709657 0.487427 0.0729577 0.489421C0.0734848 0.48995 0.074014 0.490477 0.0745432 0.491006C0.0750663 0.491528 0.0754205 0.491773 0.0754527 0.49226C0.0754909 0.492876 0.0750422 0.493334 0.0747987 0.493586L0.0568631 0.511741C0.0521609 0.516224 0.0470543 0.518604 0.0410663 0.517974C0.0327565 0.517099 0.0259859 0.510658 0.0249698 0.502668C0.0238551 0.493847 0.0281347 0.486296 0.0361408 0.482952C0.0367907 0.482682 0.0384406 0.482012 0.0384406 0.482012C0.0384406 0.482012 0.0389376 0.481845 0.0389235 0.481033C0.0389315 0.480666 0.0387706 0.479457 0.0387665 0.478914C0.0387625 0.477833 0.0379255 0.478188 0.0379255 0.478188C0.0288772 0.480441 0.0231871 0.486023 0.0210241 0.494759C0.0188631 0.503491 0.0212897 0.510962 0.0282354 0.516974C0.0322193 0.520429 0.0373259 0.522332 0.0426116 0.522332C0.0477243 0.522332 0.0526941 0.520538 0.0566036 0.517284C0.0566036 0.517284 0.0579818 0.516463 0.0629979 0.511445L0.076845 0.49759C0.0770885 0.497338 0.0773038 0.497137 0.0774788 0.496962C0.0780281 0.496413 0.0784225 0.496006 0.0789879 0.496006C0.0795492 0.496006 0.0798913 0.496399 0.0807042 0.497175L0.0817706 0.498224C0.0826076 0.499063 0.0828973 0.499988 0.0814466 0.501439L0.0647846 0.518103C0.0647343 0.518155 0.064682 0.518208 0.0646317 0.518258C0.0595633 0.523326 0.0557786 0.52556 0.0500724 0.527129C0.046169 0.528206 0.0419557 0.52827 0.0372112 0.527322C0.023509 0.524588 0.0137364 0.51152 0.0149657 0.49758C0.0157364 0.488856 0.0198249 0.481771 0.0271146 0.47653C0.0312233 0.473572 0.0361911 0.471866 0.0422213 0.471377C0.0422213 0.471377 0.0434547 0.471383 0.044014 0.471387C0.044014 0.471387 0.0447947 0.471411 0.0448309 0.470711C0.044849 0.470314 0.044841 0.468501 0.044837 0.468085C0.0448309 0.467238 0.0441186 0.467314 0.0441186 0.467314H0.0438933C0.0422736 0.467336 0.0405995 0.467359 0.0389677 0.46756C0.0260341 0.469167 0.0150945 0.47858 0.0117484 0.490994C0.00869008 0.502334 0.0109999 0.512622 0.0186197 0.52157C0.0224768 0.526097 0.0272897 0.529292 0.0329235 0.531071C0.0372917 0.532455 0.0410804 0.53299 0.0448933 0.532664C0.0472293 0.532463 0.0497263 0.532181 0.0521649 0.531477C0.0524607 0.531367 0.0526861 0.531286 0.0529436 0.531286C0.0533219 0.531286 0.0536498 0.531471 0.053851 0.531813C0.0540885 0.532214 0.0540321 0.532584 0.0538933 0.53288C0.0537846 0.533119 0.0520905 0.538097 0.0516941 0.539558C0.0514527 0.540439 0.0512273 0.54127 0.0510965 0.542129C0.0502414 0.547852 0.0502333 0.552914 0.0509899 0.557687C0.0540321 0.576854 0.0711186 0.591984 0.090505 0.593105C0.108471 0.594133 0.124318 0.584186 0.131936 0.568006C0.134688 0.562157 0.13603 0.556004 0.13597 0.549423C0.135962 0.548423 0.135161 0.548288 0.135161 0.548288C0.134388 0.54819 0.132676 0.547984 0.132338 0.547978C0.131505 0.547966 0.131632 0.548807 0.131632 0.548807C0.131658 0.550886 0.131515 0.552858 0.131255 0.554787C0.129877 0.564986 0.125326 0.57334 0.117722 0.579616C0.109117 0.586725 0.0992414 0.589735 0.0884305 0.588387C0.0783058 0.587177 0.0699074 0.582596 0.0634828 0.574777C0.055843 0.565483 0.0530543 0.554795 0.055183 0.543004C0.0566277 0.535021 0.060841 0.528105 0.0677263 0.521133C0.0708993 0.51793 0.107994 0.481089 0.117014 0.471912C0.124396 0.464413 0.127201 0.454878 0.125344 0.443946C0.122706 0.428367 0.109243 0.417055 0.0933339 0.417055C0.084173 0.417085 0.0763943 0.420332 0.0701166 0.426713C0.0645392 0.432391 0.0614184 0.439226 0.060847 0.447014C0.0607565 0.448242 0.0607464 0.449477 0.0608168 0.450705C0.0608953 0.452115 0.0610804 0.453515 0.06135 0.4549C0.06135 0.4549 0.0623118 0.464407 0.0713963 0.473491C0.0736679 0.475763 0.0764446 0.478524 0.0787182 0.480791C0.0802011 0.482268 0.081672 0.483753 0.0831508 0.48523C0.0837464 0.485825 0.0843158 0.485125 0.0843158 0.485125C0.0843158 0.485125 0.0856217 0.483819 0.0862112 0.483232C0.0867987 0.482644 0.0861951 0.48219 0.0861951 0.48219C0.0856901 0.481769 0.077169 0.473169 0.0763299 0.472332C0.0750563 0.471051 0.0737364 0.469731 0.0724889 0.468367C0.0671468 0.462534 0.064507 0.454664 0.0652313 0.446777C0.0659577 0.438928 0.0699758 0.431709 0.0762575 0.426972C0.0811569 0.42329 0.0869657 0.42134 0.0930623 0.42134C0.101189 0.42134 0.108932 0.424839 0.114294 0.430936C0.12197 0.439662 0.123998 0.450811 0.11873 0.461759C0.116881 0.465598 0.113449 0.469395 0.110694 0.472143C0.104177 0.478652 0.0877142 0.495121 0.0877142 0.495121C0.0870925 0.495743 0.0862696 0.49662 0.0850683 0.495421C0.0850683 0.495421 0.0722193 0.48259 0.068845 0.479256C0.06834 0.478751 0.0643842 0.474978 0.0631448 0.473393C0.0562957 0.464558 0.0536418 0.45458 0.0552675 0.443723C0.0565372 0.435192 0.0603319 0.427849 0.0665432 0.421896C0.0748551 0.413928 0.0849054 0.41034 0.0963078 0.411163C0.106308 0.411912 0.114652 0.415878 0.121113 0.422948C0.132479 0.435401 0.134879 0.44986 0.128253 0.465906C0.126606 0.469902 0.123936 0.473592 0.119857 0.477513C0.115821 0.481405 0.111797 0.485437 0.107905 0.489342C0.106048 0.491202 0.104191 0.493071 0.102324 0.494922C0.0992172 0.498014 0.0788289 0.518348 0.0717987 0.525429C0.0694526 0.527783 0.0673762 0.529833 0.0657182 0.532435C0.0562997 0.547177 0.0597907 0.566077 0.0738329 0.576401C0.0794325 0.580515 0.0859999 0.582687 0.0928209 0.582687C0.0995291 0.582687 0.106412 0.580574 0.112241 0.57658C0.116362 0.573757 0.119738 0.569672 0.122151 0.565322C0.124744 0.560648 0.125779 0.555407 0.126103 0.550117C0.126143 0.549451 0.126155 0.548781 0.126193 0.548115C0.126193 0.548115 0.126378 0.54688 0.125505 0.546719C0.125475 0.546715 0.124577 0.546487 0.124547 0.546483L0.122575 0.546067V0.546067Z" fill="#009CF5"/>
<path d="M0.133405 0.514846C0.132389 0.513923 0.131441 0.512911 0.130485 0.511955C0.130266 0.511735 0.130012 0.511482 0.129793 0.511261C0.129793 0.511261 0.12933 0.510687 0.128797 0.51122L0.126672 0.513345C0.126147 0.51387 0.126757 0.514287 0.126757 0.514287C0.129089 0.516619 0.131356 0.51909 0.134391 0.520514C0.136346 0.521434 0.138451 0.521943 0.140592 0.522188C0.142467 0.522404 0.144467 0.52244 0.14633 0.522098C0.158382 0.520571 0.165712 0.509607 0.16559 0.500329C0.165441 0.49142 0.16157 0.4848 0.154079 0.480665C0.150515 0.478693 0.146892 0.477699 0.143298 0.477699C0.13931 0.477699 0.135718 0.47853 0.131847 0.480955C0.130427 0.481846 0.129479 0.482458 0.127757 0.48418C0.127171 0.484766 0.0810424 0.530882 0.0784408 0.533484C0.0718815 0.540043 0.0702557 0.545532 0.0711611 0.55316C0.0724952 0.564285 0.0819519 0.572667 0.0931591 0.572667C0.0953221 0.572667 0.0974911 0.572355 0.0996038 0.571733C0.105692 0.569939 0.110729 0.565609 0.113419 0.559866C0.116131 0.554074 0.116618 0.54718 0.11398 0.541285C0.112612 0.538224 0.110733 0.535488 0.10836 0.533116L0.106455 0.53121C0.104022 0.528778 0.10233 0.5271 0.0999579 0.524713L0.0980787 0.522826C0.0964207 0.521168 0.0976943 0.520307 0.0986964 0.519307C0.0986964 0.519307 0.124346 0.493625 0.12901 0.488993C0.131678 0.486333 0.134531 0.483045 0.139211 0.482317C0.144692 0.481474 0.149497 0.482518 0.154034 0.485571C0.160694 0.490049 0.163 0.497927 0.160197 0.506635C0.158775 0.511076 0.155729 0.514426 0.151149 0.516597C0.148411 0.517894 0.144928 0.518591 0.14192 0.518389C0.140638 0.518305 0.139232 0.518114 0.138004 0.517719C0.136234 0.51715 0.134759 0.516078 0.133405 0.514846V0.514846ZM0.111481 0.550164C0.111143 0.560764 0.103127 0.567196 0.0953785 0.56811C0.0946581 0.56819 0.0939338 0.568237 0.0932175 0.568237C0.0844831 0.568237 0.0770143 0.561971 0.0754609 0.553353C0.0743664 0.547289 0.0762275 0.541929 0.0806018 0.537401L0.0922778 0.525679C0.092634 0.525404 0.0930666 0.525124 0.0935797 0.525124C0.0941672 0.525124 0.0946018 0.525494 0.0948774 0.525768L0.104978 0.53587C0.112213 0.543104 0.111481 0.550164 0.111481 0.550164V0.550164Z" fill="#009CF5"/>
<path d="M0.177549 0.526194C0.184857 0.516693 0.187684 0.505888 0.185957 0.494065C0.183364 0.476292 0.170818 0.462608 0.153219 0.458363C0.150269 0.457643 0.147233 0.457222 0.144205 0.457222L0.143595 0.45723C0.143595 0.45723 0.142891 0.457129 0.142827 0.458069C0.142766 0.45894 0.1427 0.45984 0.142639 0.460602C0.142567 0.46151 0.143277 0.461445 0.143277 0.461445C0.143712 0.461476 0.144144 0.461512 0.144577 0.461544L0.145841 0.46164C0.15578 0.462329 0.164259 0.466264 0.171048 0.473445C0.178827 0.481679 0.182525 0.49153 0.181704 0.502721C0.180881 0.513906 0.176374 0.523234 0.167597 0.530216C0.159826 0.536385 0.150323 0.539055 0.140458 0.538343C0.132778 0.537787 0.125684 0.535083 0.119812 0.530083C0.116617 0.527363 0.113829 0.524238 0.110881 0.521262C0.110193 0.520568 0.109505 0.51987 0.10881 0.519178C0.108235 0.518602 0.107897 0.519073 0.107897 0.519073L0.10566 0.521309C0.105211 0.521757 0.105764 0.522226 0.105764 0.522226C0.107253 0.523707 0.111573 0.527997 0.113084 0.529546C0.115557 0.532087 0.118446 0.534876 0.121004 0.536518C0.128231 0.541156 0.134921 0.542818 0.143704 0.542902C0.144062 0.542916 0.1444 0.542916 0.144736 0.542916C0.146374 0.542916 0.148076 0.542775 0.149935 0.542478C0.161358 0.540655 0.170647 0.535176 0.177549 0.526194V0.526194Z" fill="#009CF5"/>
<path d="M0.11027 0.443361C0.11056 0.444122 0.110979 0.445055 0.111168 0.445468C0.111556 0.446307 0.111618 0.446532 0.11248 0.446281L0.114538 0.445703C0.114538 0.445703 0.115282 0.44552 0.115047 0.444617C0.113906 0.440226 0.111914 0.436482 0.108892 0.433532C0.104767 0.429508 0.099055 0.427204 0.093212 0.427204C0.0902321 0.427204 0.0873689 0.427782 0.0847029 0.428939C0.076224 0.432598 0.0709806 0.440552 0.0710168 0.449691C0.0710168 0.449691 0.0707472 0.458271 0.0759283 0.46345L0.0863971 0.473928C0.0863971 0.473928 0.0869162 0.474429 0.0873468 0.473999L0.0895601 0.471786C0.0899766 0.471369 0.0894293 0.470896 0.0894293 0.470896L0.0813246 0.462796L0.0792422 0.460713C0.0762462 0.457717 0.0750933 0.452331 0.0755741 0.447631C0.0764997 0.438514 0.0841939 0.431645 0.0934615 0.431645C0.100977 0.431659 0.107568 0.43626 0.11027 0.443361V0.443361Z" fill="#009CF5"/>
</svg>
