<svg xmlns="http://www.w3.org/2000/svg" xmlns:xlink="http://www.w3.org/1999/xlink" width="1047" height="176" viewBox="0 0 1047 176">
  <defs>
    <polygon id="equiem-logo-blue-a" points="0 176 1046.621 176 1046.621 .695 0 .695"/>
  </defs>
  <g fill="none" fill-rule="evenodd" transform="translate(0 -1)">
    <polygon fill="#00A" points="0 4.462 0 172.596 124.618 172.596 124.618 140.206 35.852 140.206 35.852 105.838 114.481 105.838 114.481 73.447 35.852 73.447 35.852 36.852 124.618 36.852 124.618 4.462"/>
    <g transform="translate(0 .305)">
      <path fill="#00A" d="M544.4303,95.8879 C544.4303,146.0829 514.2633,175.9999 468.2743,175.9999 C422.5313,175.9999 392.6143,146.0829 392.6143,95.8879 L392.6143,4.1569 L428.2193,4.1569 L428.2193,96.1359 C428.2193,124.0769 444.2903,142.6209 468.2743,142.6209 C492.7523,142.6209 508.8253,124.0769 508.8253,96.1359 L508.8253,4.1569 L544.4303,4.1569 L544.4303,95.8879 Z"/>
      <mask id="equiem-logo-blue-b" fill="#fff">
        <use xlink:href="#equiem-logo-blue-a"/>
      </mask>
      <polygon fill="#00A" points="600.068 172.291 635.921 172.291 635.921 4.157 600.068 4.157" mask="url(#equiem-logo-blue-b)"/>
      <polygon fill="#00A" points="729.632 73.141 808.259 73.141 808.259 105.532 729.632 105.532 729.632 139.901 818.396 139.901 818.396 172.29 693.778 172.29 693.778 4.157 818.396 4.157 818.396 36.546 729.632 36.546" mask="url(#equiem-logo-blue-b)"/>
      <polygon fill="#00A" points="1046.621 172.291 1010.769 172.291 1010.769 81.053 968.735 147.071 947.719 147.071 947.719 146.823 905.437 80.312 905.932 172.291 869.832 172.291 869.832 4.157 895.547 4.157 958.35 103.059 1021.153 4.157 1046.621 4.157" mask="url(#equiem-logo-blue-b)"/>
      <path fill="#00A" d="M288.9268,88.3479 L255.4348,88.3479 C255.4348,136.7569 294.6778,175.9999 343.0878,175.9999 L343.0878,142.5089 C313.1758,142.5089 288.9268,118.2599 288.9268,88.3479" mask="url(#equiem-logo-blue-b)"/>
      <path fill="#00A" d="M255.4352,142.5085 C225.5232,142.5085 201.2742,118.2595 201.2742,88.3475 C201.2742,58.4355 225.5232,34.1865 255.4352,34.1865 C285.3472,34.1865 309.5962,58.4355 309.5962,88.3475 L343.0872,88.3475 C343.0872,39.9385 303.8442,0.6955 255.4352,0.6955 C207.0262,0.6955 167.7832,39.9385 167.7832,88.3475 C167.7832,136.7565 207.0262,175.9995 255.4352,175.9995 L255.4352,142.5085 Z" mask="url(#equiem-logo-blue-b)"/>
    </g>
  </g>
</svg>
