<svg xmlns="http://www.w3.org/2000/svg" viewBox="0 0 69.81 21.26"><defs><style>.cls-1{fill:#231f20;}</style></defs><title>RateIt Logo</title><g id="Layer_2" data-name="Layer 2"><g id="Layer_1-2" data-name="Layer 1"><path class="cls-1" d="M63.43,6.4v8.21a.26.26,0,0,1-.26.26H61.63a.26.26,0,0,1-.26-.26V7.14a.53.53,0,0,1,.35-.5l1.36-.49.09,0a.27.27,0,0,1,.26.27"/><path class="cls-1" d="M41.39,6.39H39.76a.26.26,0,0,0-.25.26V6.9a.94.94,0,0,0,.07.39h0a3.11,3.11,0,0,0-2.63-1.17c-2.35,0-4.23,1.56-4.23,4.5v0c0,2.94,1.88,4.5,4.23,4.5A3.11,3.11,0,0,0,39.55,14h0a.94.94,0,0,0-.07.39v.25a.26.26,0,0,0,.25.26h1.63a.26.26,0,0,0,.25-.26v-8a.26.26,0,0,0-.25-.26m-1.66,4.25c0,2.37-1.54,3-2.41,3a2.74,2.74,0,0,1-2.58-3v0a2.74,2.74,0,0,1,2.58-3c.87,0,2.41.62,2.41,3Z"/><path class="cls-1" d="M32.42,6.39V7.72a.26.26,0,0,1-.24.26c-1.72,0-3.57,1.9-3.57,4.17v2.46a.27.27,0,0,1-.26.27H26.84a.27.27,0,0,1-.27-.27v-8a.27.27,0,0,1,.27-.26h1.6a.26.26,0,0,1,.26.26V7.74a7.75,7.75,0,0,1-.13,1h0A4.72,4.72,0,0,1,29.76,7a4.14,4.14,0,0,1,2.37-.83h0a.29.29,0,0,1,.29.27"/><path class="cls-1" d="M69.81,6.66a.27.27,0,0,1,0,.15l-.69,1a.55.55,0,0,1-.43.21h-1v6.63a.27.27,0,0,1-.27.27H65.83a.27.27,0,0,1-.27-.26V8h-.8a.26.26,0,0,1-.26-.26V6.66a.27.27,0,0,1,.26-.27h.8V4.23a.53.53,0,0,1,.35-.5l1.42-.51a.26.26,0,0,1,.36.25V6.39h1.85a.27.27,0,0,1,.21.1.24.24,0,0,1,.06.17"/><path class="cls-1" d="M52.51,6.12A4.23,4.23,0,0,0,48,10.65a4.29,4.29,0,0,0,4.22,4.49,5.89,5.89,0,0,0,3.35-.72.27.27,0,0,0,.12-.35l-.47-.88a.25.25,0,0,0-.37-.1,4.25,4.25,0,0,1-2.25.53,2.68,2.68,0,0,1-2.41-2.43H56a.53.53,0,0,0,.53-.54c0-2.35-1.06-4.53-4-4.53M50.23,9.91a2.24,2.24,0,0,1,2.23-2.28,2.09,2.09,0,0,1,1.93,2.28Z"/><path class="cls-1" d="M48,6.66a.27.27,0,0,1-.05.15l-.7,1a.53.53,0,0,1-.43.21h-1v6.63a.27.27,0,0,1-.27.27H44a.27.27,0,0,1-.27-.26V8H43a.26.26,0,0,1-.27-.26V6.66A.27.27,0,0,1,43,6.39h.79V4.23a.54.54,0,0,1,.35-.5l1.42-.51a.26.26,0,0,1,.36.25V6.39h1.85a.3.3,0,0,1,.22.1.24.24,0,0,1,.06.17"/><path class="cls-1" d="M10.63,0A10.63,10.63,0,1,0,21.26,10.63,10.63,10.63,0,0,0,10.63,0m4,14.88H8a.53.53,0,0,1-.53-.53V6.91A.53.53,0,0,1,8,6.38h3.72A2.65,2.65,0,0,1,13.49,11c-.67.65-.49.95-.26,1.26s1.4,1.93,1.6,2.21a.26.26,0,0,1-.21.42"/></g></g></svg>