<?xml version="1.0" encoding="UTF-8"?>
<!-- Generator: Adobe Illustrator 24.1.0, SVG Export Plug-In . SVG Version: 6.00 Build 0)  -->
<svg version="1.1" id="Layer_1" xmlns="http://www.w3.org/2000/svg" xmlns:xlink="http://www.w3.org/1999/xlink" x="0px" y="0px" viewBox="0 0 682.6 208" style="enable-background:new 0 0 682.6 208;" xml:space="preserve"><script xmlns=""/>
<style type="text/css">
	.st0{fill:#E31936;}
</style>
<g>
	<g>
		<path class="st0" d="M506.4,20.7c21.1,6.6,12.4,45.8,5.9,59.1C503,69.8,490.5,30.9,506.4,20.7 M139.9,116.6    c-8.6-10.2-25.7-56-0.5-59.6C152.3,72.5,146.9,102.5,139.9,116.6 M637.4,119.9C566.1,157.9,565,46,618.1,35    c20.5,36.5-31.1,55.3-28.2,80.5c21.1-3.8,65.2-39.1,65.6-67.9c0.2-17.8-9.8-28.4-22.9-30.3c-55-8-82.2,45.8-86.9,89.9    c-10.2,1.1-15.6-3.7-20.7-8.8c16.9-19,39.1-89.4-0.6-97.6C473-9.6,469.6,74.5,498.8,108.3c-8.6,10-12,24.2-26,29.7    c-15.1-33.3-2.7-75.2-6.7-104.2c-36.8,3.3-35.7,37.6-30.5,75.3c-13,14.6-19.5,34.5-43,40.4c-2.6-19.2,12.1-32.6,4-51    c-10.2-1.1-15.7,1.4-21.1,5.7c-5.7,4.5-37.6,85.9-53.9,39.7c-11.2-31.6,15.1-75.7,35.4-81.2c13.6-3.7,23.3-2.4,25.9,6.5    c3.8,12.7-10.3,9.8-10.6,20.9c24.7,14.3,49.6-11.5,38.2-34.5c-6.4-12.8-28.7-17.1-53.5-11c-40.9,10.1-66.2,53.1-68.5,93.5    c-13.4,19.3-66.8,43-78.6,9.6c-10.8-30.7,5.1-69.4,35.9-75.9c20.5,36.5-31.1,55.3-28.2,80.5c21.1-3.8,65.2-39.1,65.6-68    c0.2-17.8-9.8-28.4-22.9-30.3c-55-8-82.2,45.8-86.9,89.9c-9.5,0.2-16.3-2.9-19.1-10.8c8.8-21.5,34-60.5,13.2-86.3    c-10.2-12.6-28.9-11.4-40.3-5.1c-29.8,16.7-20.1,76.7-0.7,103.1c-9,9.6-11.9,24.2-26,29.7c-16.3-33.2-1.1-79.9-6.7-104.2    c-58,3.4-12.8,91.5-52.4,110c-15.5-32.9-2.5-75.5-6.7-104.2c-54.4,5.2-33.8,101.3-12.3,131.4c29.7,2.8,34.3-23.2,47.8-28.2    c1.1,10.7,6.4,16.2,11.2,22.4c32.6-3.4,41.5-26.3,57.1-43.6c9.4,7.7,25.5,14.1,42.3,6.7c19.4,39.6,91.8,18.7,111.2-9.2    c8.6,28.4,55.7,26.1,70.9,3.8c24.1,33.7,61.3-12.8,76.8-27.5c1.7,14.7,6.5,25.5,14.1,33c32.7-3.3,41.8-26,57.1-43.6    c8.9,7.7,28.4,15.2,42.1,4.9c32.2,54.6,131.6,3.2,129.5-43.5C665.9,86.8,656,110,637.4,119.9"/>
	</g>
</g>
</svg>